solid face
 facet normal 0 0 1
  outer loop
   vertex -0.00837366 -0.0124452 0
   vertex -0.0107423 -0.0104692 0
   vertex -0.0096089 -0.0115182 0
  endloop
 endfacet
 facet normal 0 0 1
  outer loop
   vertex -0.0140358 -0.00529128 0
   vertex -0.0134173 -0.00670641 0
   vertex -0.0126566 -0.00805044 0
  endloop
 endfacet
 facet normal 0 0 1
  outer loop
   vertex -0.0140358 -0.00529128 0
   vertex -0.0126566 -0.00805044 0
   vertex -0.0117618 -0.00930914 0
  endloop
 endfacet
 facet normal 0 0 1
  outer loop
   vertex -0.00268921 -0.014757 0
   vertex -0.00704965 -0.0132402 0
   vertex -0.00565092 -0.0138949 0
  endloop
 endfacet
 facet normal 0 0 1
  outer loop
   vertex -0.00268921 -0.014757 0
   vertex -0.00565092 -0.0138949 0
   vertex -0.00419229 -0.0144022 0
  endloop
 endfacet
 facet normal 0 0 1
  outer loop
   vertex -0.0148213 -0.00230836 0
   vertex -0.0145054 -0.00382007 0
   vertex -0.0140358 -0.00529128 0
  endloop
 endfacet
 facet normal 0 0 1
  outer loop
   vertex -0.00115763 -0.0149553 0
   vertex -0.00704965 -0.0132402 0
   vertex -0.00268921 -0.014757 0
  endloop
 endfacet
 facet normal 0 0 1
  outer loop
   vertex 0.00192597 -0.0148758 0
   vertex -0.00115763 -0.0149553 0
   vertex 0.000386219 -0.014995 0
  endloop
 endfacet
 facet normal 0 0 1
  outer loop
   vertex -0.0140358 0.00529128 0
   vertex -0.0145054 0.00382007 0
   vertex -0.0148213 0.00230836 0
  endloop
 endfacet
 facet normal 0 0 1
  outer loop
   vertex -0.0140358 0.00529128 0
   vertex -0.0148213 0.00230836 0
   vertex -0.0149801 0.000772181 0
  endloop
 endfacet
 facet normal 0 0 1
  outer loop
   vertex -0.0140358 0.00529128 0
   vertex -0.0149801 0.000772181 0
   vertex -0.0149801 -0.000772181 0
  endloop
 endfacet
 facet normal 0 0 1
  outer loop
   vertex 0.00635872 -0.0135855 0
   vertex 0.00344532 -0.014599 0
   vertex 0.00492814 -0.0141673 0
  endloop
 endfacet
 facet normal 0 0 1
  outer loop
   vertex -0.0134173 0.00670641 0
   vertex -0.0140358 0.00529128 0
   vertex -0.0149801 -0.000772181 0
  endloop
 endfacet
 facet normal 0 0 1
  outer loop
   vertex -0.0134173 0.00670641 0
   vertex -0.0149801 -0.000772181 0
   vertex -0.0148213 -0.00230836 0
  endloop
 endfacet
 facet normal 0 0 1
  outer loop
   vertex -0.0134173 0.00670641 0
   vertex -0.0117618 -0.00930914 0
   vertex -0.0107423 -0.0104692 0
  endloop
 endfacet
 facet normal 0 0 1
  outer loop
   vertex -0.0134173 0.00670641 0
   vertex -0.0107423 -0.0104692 0
   vertex -0.00837366 -0.0124452 0
  endloop
 endfacet
 facet normal 0 0 1
  outer loop
   vertex -0.0134173 0.00670641 0
   vertex -0.0140358 -0.00529128 0
   vertex -0.0117618 -0.00930914 0
  endloop
 endfacet
 facet normal 0 0 1
  outer loop
   vertex -0.0134173 0.00670641 0
   vertex -0.0148213 -0.00230836 0
   vertex -0.0140358 -0.00529128 0
  endloop
 endfacet
 facet normal 0 0 1
  outer loop
   vertex 0.00900321 -0.0119976 0
   vertex 0.00635872 -0.0135855 0
   vertex 0.00772189 -0.0128597 0
  endloop
 endfacet
 facet normal 0 0 1
  outer loop
   vertex 0.0101891 -0.0110083 0
   vertex 0.00344532 -0.014599 0
   vertex 0.00635872 -0.0135855 0
  endloop
 endfacet
 facet normal 0 0 1
  outer loop
   vertex 0.0101891 -0.0110083 0
   vertex 0.00635872 -0.0135855 0
   vertex 0.00900321 -0.0119976 0
  endloop
 endfacet
 facet normal 0 0 1
  outer loop
   vertex 0.0101891 -0.0110083 0
   vertex 0.00192597 -0.0148758 0
   vertex 0.00344532 -0.014599 0
  endloop
 endfacet
 facet normal 0 0 1
  outer loop
   vertex 0.0101891 -0.0110083 0
   vertex -0.00115763 -0.0149553 0
   vertex 0.00192597 -0.0148758 0
  endloop
 endfacet
 facet normal 0 0 1
  outer loop
   vertex -0.0107423 0.0104692 0
   vertex -0.0117618 0.00930914 0
   vertex -0.0126566 0.00805044 0
  endloop
 endfacet
 facet normal 0 0 1
  outer loop
   vertex -0.0096089 0.0115182 0
   vertex -0.0107423 0.0104692 0
   vertex -0.0126566 0.00805044 0
  endloop
 endfacet
 facet normal 0 0 1
  outer loop
   vertex -0.00837366 0.0124452 0
   vertex -0.0096089 0.0115182 0
   vertex -0.0126566 0.00805044 0
  endloop
 endfacet
 facet normal 0 0 1
  outer loop
   vertex 0.0130543 -0.00738822 0
   vertex 0.0101891 -0.0110083 0
   vertex 0.011267 -0.00990228 0
  endloop
 endfacet
 facet normal 0 0 1
  outer loop
   vertex 0.0130543 -0.00738822 0
   vertex 0.011267 -0.00990228 0
   vertex 0.0122254 -0.00869132 0
  endloop
 endfacet
 facet normal 0 0 1
  outer loop
   vertex 0.0137448 -0.00600681 0
   vertex 0.0101891 -0.0110083 0
   vertex 0.0130543 -0.00738822 0
  endloop
 endfacet
 facet normal 0 0 1
  outer loop
   vertex -0.00419229 0.0144022 0
   vertex -0.00565092 0.0138949 0
   vertex -0.00704965 0.0132402 0
  endloop
 endfacet
 facet normal 0 0 1
  outer loop
   vertex -0.00419229 0.0144022 0
   vertex -0.00704965 0.0132402 0
   vertex -0.00837366 0.0124452 0
  endloop
 endfacet
 facet normal 0 0 1
  outer loop
   vertex -0.00419229 0.0144022 0
   vertex -0.0126566 0.00805044 0
   vertex -0.0134173 0.00670641 0
  endloop
 endfacet
 facet normal 0 0 1
  outer loop
   vertex -0.00419229 0.0144022 0
   vertex -0.00837366 0.0124452 0
   vertex -0.0126566 0.00805044 0
  endloop
 endfacet
 facet normal 0 0 1
  outer loop
   vertex -0.00419229 0.0144022 0
   vertex -0.00837366 -0.0124452 0
   vertex -0.00704965 -0.0132402 0
  endloop
 endfacet
 facet normal 0 0 1
  outer loop
   vertex -0.00419229 0.0144022 0
   vertex -0.00704965 -0.0132402 0
   vertex -0.00115763 -0.0149553 0
  endloop
 endfacet
 facet normal 0 0 1
  outer loop
   vertex -0.00419229 0.0144022 0
   vertex -0.0134173 0.00670641 0
   vertex -0.00837366 -0.0124452 0
  endloop
 endfacet
 facet normal 0 0 1
  outer loop
   vertex 0.0149205 -0.00154232 0
   vertex 0.0142895 -0.00456172 0
   vertex 0.0146828 -0.00306828 0
  endloop
 endfacet
 facet normal 0 0 1
  outer loop
   vertex -0.00115763 0.0149553 0
   vertex -0.00268921 0.014757 0
   vertex -0.00419229 0.0144022 0
  endloop
 endfacet
 facet normal 0 0 1
  outer loop
   vertex 0.015 0 0
   vertex 0.0142895 -0.00456172 0
   vertex 0.0149205 -0.00154232 0
  endloop
 endfacet
 facet normal 0 0 1
  outer loop
   vertex 0.0149205 0.00154232 0
   vertex 0.0142895 -0.00456172 0
   vertex 0.015 0 0
  endloop
 endfacet
 facet normal 0 0 1
  outer loop
   vertex 0.0149205 0.00154232 0
   vertex 0.0137448 -0.00600681 0
   vertex 0.0142895 -0.00456172 0
  endloop
 endfacet
 facet normal 0 0 1
  outer loop
   vertex 0.00344532 0.014599 0
   vertex -0.00419229 0.0144022 0
   vertex -0.00115763 -0.0149553 0
  endloop
 endfacet
 facet normal 0 0 1
  outer loop
   vertex 0.00344532 0.014599 0
   vertex 0.00192597 0.0148758 0
   vertex 0.000386219 0.014995 0
  endloop
 endfacet
 facet normal 0 0 1
  outer loop
   vertex 0.00344532 0.014599 0
   vertex 0.000386219 0.014995 0
   vertex -0.00115763 0.0149553 0
  endloop
 endfacet
 facet normal 0 0 1
  outer loop
   vertex 0.00344532 0.014599 0
   vertex -0.00115763 0.0149553 0
   vertex -0.00419229 0.0144022 0
  endloop
 endfacet
 facet normal 0 0 1
  outer loop
   vertex 0.0137448 0.00600681 0
   vertex 0.0146828 0.00306828 0
   vertex 0.0142895 0.00456172 0
  endloop
 endfacet
 facet normal 0 0 1
  outer loop
   vertex 0.00635872 0.0135855 0
   vertex 0.00492814 0.0141673 0
   vertex 0.00344532 0.014599 0
  endloop
 endfacet
 facet normal 0 0 1
  outer loop
   vertex 0.00635872 0.0135855 0
   vertex -0.00115763 -0.0149553 0
   vertex 0.0101891 -0.0110083 0
  endloop
 endfacet
 facet normal 0 0 1
  outer loop
   vertex 0.00635872 0.0135855 0
   vertex 0.0101891 -0.0110083 0
   vertex 0.0137448 -0.00600681 0
  endloop
 endfacet
 facet normal 0 0 1
  outer loop
   vertex 0.00635872 0.0135855 0
   vertex 0.00344532 0.014599 0
   vertex -0.00115763 -0.0149553 0
  endloop
 endfacet
 facet normal 0 0 1
  outer loop
   vertex 0.0130543 0.00738822 0
   vertex 0.0149205 0.00154232 0
   vertex 0.0146828 0.00306828 0
  endloop
 endfacet
 facet normal 0 0 1
  outer loop
   vertex 0.0130543 0.00738822 0
   vertex 0.0137448 -0.00600681 0
   vertex 0.0149205 0.00154232 0
  endloop
 endfacet
 facet normal 0 0 1
  outer loop
   vertex 0.0130543 0.00738822 0
   vertex 0.0146828 0.00306828 0
   vertex 0.0137448 0.00600681 0
  endloop
 endfacet
 facet normal 0 0 1
  outer loop
   vertex 0.00900321 0.0119976 0
   vertex 0.00772189 0.0128597 0
   vertex 0.00635872 0.0135855 0
  endloop
 endfacet
 facet normal 0 0 1
  outer loop
   vertex 0.011267 0.00990228 0
   vertex 0.0130543 0.00738822 0
   vertex 0.0122254 0.00869132 0
  endloop
 endfacet
 facet normal 0 0 1
  outer loop
   vertex 0.0101891 0.0110083 0
   vertex 0.0137448 -0.00600681 0
   vertex 0.0130543 0.00738822 0
  endloop
 endfacet
 facet normal 0 0 1
  outer loop
   vertex 0.0101891 0.0110083 0
   vertex 0.00635872 0.0135855 0
   vertex 0.0137448 -0.00600681 0
  endloop
 endfacet
 facet normal 0 0 1
  outer loop
   vertex 0.0101891 0.0110083 0
   vertex 0.0130543 0.00738822 0
   vertex 0.011267 0.00990228 0
  endloop
 endfacet
 facet normal 0 0 1
  outer loop
   vertex 0.0101891 0.0110083 0
   vertex 0.00900321 0.0119976 0
   vertex 0.00635872 0.0135855 0
  endloop
 endfacet
endsolid face
solid outlet
 facet normal 0 0 -1
  outer loop
   vertex -0.0104736 -0.010738 -0.05
   vertex -0.00935235 -0.0117275 -0.05
   vertex -0.00992529 -0.0112467 -0.05
  endloop
 endfacet
 facet normal 0 0 -1
  outer loop
   vertex -0.0114907 -0.00964181 -0.05
   vertex -0.011957 -0.00905707 -0.05
   vertex -0.0109958 -0.0102026 -0.05
  endloop
 endfacet
 facet normal 0 0 -1
  outer loop
   vertex -0.0104736 -0.010738 -0.05
   vertex -0.00875616 -0.0121791 -0.05
   vertex -0.00935235 -0.0117275 -0.05
  endloop
 endfacet
 facet normal 0 0 -1
  outer loop
   vertex -0.011957 -0.00905707 -0.05
   vertex -0.00875616 -0.0121791 -0.05
   vertex -0.0109958 -0.0102026 -0.05
  endloop
 endfacet
 facet normal 0 0 -1
  outer loop
   vertex -0.0109958 -0.0102026 -0.05
   vertex -0.00875616 -0.0121791 -0.05
   vertex -0.0104736 -0.010738 -0.05
  endloop
 endfacet
 facet normal 0 0 -1
  outer loop
   vertex -0.0123936 -0.0084498 -0.05
   vertex -0.0127994 -0.00782153 -0.05
   vertex -0.011957 -0.00905707 -0.05
  endloop
 endfacet
 facet normal 0 0 -1
  outer loop
   vertex -0.011957 -0.00905707 -0.05
   vertex -0.0075 -0.0129904 -0.05
   vertex -0.00875616 -0.0121791 -0.05
  endloop
 endfacet
 facet normal 0 0 -1
  outer loop
   vertex -0.00875616 -0.0121791 -0.05
   vertex -0.0075 -0.0129904 -0.05
   vertex -0.00813819 -0.0126004 -0.05
  endloop
 endfacet
 facet normal 0 0 -1
  outer loop
   vertex -0.0131733 -0.00717381 -0.05
   vertex -0.0135145 -0.00650826 -0.05
   vertex -0.0127994 -0.00782153 -0.05
  endloop
 endfacet
 facet normal 0 0 -1
  outer loop
   vertex -0.0075 -0.0129904 -0.05
   vertex -0.0047773 -0.0142189 -0.05
   vertex -0.00684316 -0.0133481 -0.05
  endloop
 endfacet
 facet normal 0 0 -1
  outer loop
   vertex -0.00684316 -0.0133481 -0.05
   vertex -0.0047773 -0.0142189 -0.05
   vertex -0.00616931 -0.0136726 -0.05
  endloop
 endfacet
 facet normal 0 0 -1
  outer loop
   vertex -0.00616931 -0.0136726 -0.05
   vertex -0.0047773 -0.0142189 -0.05
   vertex -0.00548011 -0.0139631 -0.05
  endloop
 endfacet
 facet normal 0 0 -1
  outer loop
   vertex -0.0127994 -0.00782153 -0.05
   vertex -0.0143336 -0.00442133 -0.05
   vertex -0.011957 -0.00905707 -0.05
  endloop
 endfacet
 facet normal 0 0 -1
  outer loop
   vertex -0.011957 -0.00905707 -0.05
   vertex -0.0143336 -0.00442133 -0.05
   vertex -0.0075 -0.0129904 -0.05
  endloop
 endfacet
 facet normal 0 0 -1
  outer loop
   vertex -0.0135145 -0.00650826 -0.05
   vertex -0.0143336 -0.00442133 -0.05
   vertex -0.0127994 -0.00782153 -0.05
  endloop
 endfacet
 facet normal 0 0 -1
  outer loop
   vertex -0.0140954 -0.0051303 -0.05
   vertex -0.0143336 -0.00442133 -0.05
   vertex -0.0138221 -0.00582652 -0.05
  endloop
 endfacet
 facet normal 0 0 -1
  outer loop
   vertex -0.0138221 -0.00582652 -0.05
   vertex -0.0143336 -0.00442133 -0.05
   vertex -0.0135145 -0.00650826 -0.05
  endloop
 endfacet
 facet normal 0 0 -1
  outer loop
   vertex -0.0047773 -0.0142189 -0.05
   vertex -0.00333781 -0.0146239 -0.05
   vertex -0.00406261 -0.0144394 -0.05
  endloop
 endfacet
 facet normal 0 0 -1
  outer loop
   vertex -0.0145362 -0.00370136 -0.05
   vertex -0.0147026 -0.00297219 -0.05
   vertex -0.0143336 -0.00442133 -0.05
  endloop
 endfacet
 facet normal 0 0 -1
  outer loop
   vertex -0.0047773 -0.0142189 -0.05
   vertex -0.00112095 -0.0149581 -0.05
   vertex -0.00333781 -0.0146239 -0.05
  endloop
 endfacet
 facet normal 0 0 -1
  outer loop
   vertex -0.00333781 -0.0146239 -0.05
   vertex -0.00112095 -0.0149581 -0.05
   vertex -0.00260472 -0.0147721 -0.05
  endloop
 endfacet
 facet normal 0 0 -1
  outer loop
   vertex -0.00260472 -0.0147721 -0.05
   vertex -0.00112095 -0.0149581 -0.05
   vertex -0.00186516 -0.0148836 -0.05
  endloop
 endfacet
 facet normal 0 0 -1
  outer loop
   vertex -0.0149814 -0.000747688 -0.05
   vertex -0.015 -0 -0.05
   vertex -0.0149255 -0.00149352 -0.05
  endloop
 endfacet
 facet normal 0 0 -1
  outer loop
   vertex -0.0149255 -0.00149352 -0.05
   vertex -0.015 -0 -0.05
   vertex -0.0148325 -0.00223563 -0.05
  endloop
 endfacet
 facet normal 0 0 -1
  outer loop
   vertex -0.0148325 -0.00223563 -0.05
   vertex -0.015 -0 -0.05
   vertex -0.0147026 -0.00297219 -0.05
  endloop
 endfacet
 facet normal 0 0 -1
  outer loop
   vertex -0.0147026 -0.00297219 -0.05
   vertex -0.015 -0 -0.05
   vertex -0.0143336 -0.00442133 -0.05
  endloop
 endfacet
 facet normal 0 -0 -1
  outer loop
   vertex -0.0149814 0.000747688 -0.05
   vertex -0.0149255 0.00149352 -0.05
   vertex -0.015 -0 -0.05
  endloop
 endfacet
 facet normal 0 0 -1
  outer loop
   vertex -0.00037396 -0.0149953 -0.05
   vertex 0.00186516 -0.0148836 -0.05
   vertex 0.00037396 -0.0149953 -0.05
  endloop
 endfacet
 facet normal 0 0 -1
  outer loop
   vertex 0.00037396 -0.0149953 -0.05
   vertex 0.00186516 -0.0148836 -0.05
   vertex 0.00112095 -0.0149581 -0.05
  endloop
 endfacet
 facet normal 0 0 -1
  outer loop
   vertex -0.015 -0 -0.05
   vertex -0.0148325 0.00223563 -0.05
   vertex -0.0143336 -0.00442133 -0.05
  endloop
 endfacet
 facet normal 0 -0 -1
  outer loop
   vertex -0.0149255 0.00149352 -0.05
   vertex -0.0148325 0.00223563 -0.05
   vertex -0.015 -0 -0.05
  endloop
 endfacet
 facet normal 0 0 -1
  outer loop
   vertex -0.00037396 -0.0149953 -0.05
   vertex 0.00260472 -0.0147721 -0.05
   vertex 0.00186516 -0.0148836 -0.05
  endloop
 endfacet
 facet normal 0 0 -1
  outer loop
   vertex -0.0075 -0.0129904 -0.05
   vertex 0.00260472 -0.0147721 -0.05
   vertex -0.0047773 -0.0142189 -0.05
  endloop
 endfacet
 facet normal 0 0 -1
  outer loop
   vertex -0.0047773 -0.0142189 -0.05
   vertex 0.00260472 -0.0147721 -0.05
   vertex -0.00112095 -0.0149581 -0.05
  endloop
 endfacet
 facet normal 0 0 -1
  outer loop
   vertex -0.00112095 -0.0149581 -0.05
   vertex 0.00260472 -0.0147721 -0.05
   vertex -0.00037396 -0.0149953 -0.05
  endloop
 endfacet
 facet normal 0 -0 -1
  outer loop
   vertex -0.0147026 0.00297219 -0.05
   vertex -0.0145362 0.00370136 -0.05
   vertex -0.0148325 0.00223563 -0.05
  endloop
 endfacet
 facet normal 0 0 -1
  outer loop
   vertex -0.0148325 0.00223563 -0.05
   vertex -0.0143336 0.00442133 -0.05
   vertex -0.0143336 -0.00442133 -0.05
  endloop
 endfacet
 facet normal 0 -0 -1
  outer loop
   vertex -0.0145362 0.00370136 -0.05
   vertex -0.0143336 0.00442133 -0.05
   vertex -0.0148325 0.00223563 -0.05
  endloop
 endfacet
 facet normal 0 0 -1
  outer loop
   vertex -0.0143336 -0.00442133 -0.05
   vertex 0.0047773 -0.0142189 -0.05
   vertex -0.0075 -0.0129904 -0.05
  endloop
 endfacet
 facet normal 0 0 -1
  outer loop
   vertex -0.0075 -0.0129904 -0.05
   vertex 0.0047773 -0.0142189 -0.05
   vertex 0.00260472 -0.0147721 -0.05
  endloop
 endfacet
 facet normal 0 0 -1
  outer loop
   vertex 0.00260472 -0.0147721 -0.05
   vertex 0.0047773 -0.0142189 -0.05
   vertex 0.00333781 -0.0146239 -0.05
  endloop
 endfacet
 facet normal 0 0 -1
  outer loop
   vertex 0.00333781 -0.0146239 -0.05
   vertex 0.0047773 -0.0142189 -0.05
   vertex 0.00406261 -0.0144394 -0.05
  endloop
 endfacet
 facet normal 0 0 -1
  outer loop
   vertex 0.0047773 -0.0142189 -0.05
   vertex 0.00616931 -0.0136726 -0.05
   vertex 0.00548011 -0.0139631 -0.05
  endloop
 endfacet
 facet normal 0 0 -1
  outer loop
   vertex 0.0047773 -0.0142189 -0.05
   vertex 0.00684316 -0.0133481 -0.05
   vertex 0.00616931 -0.0136726 -0.05
  endloop
 endfacet
 facet normal 0 -0 -1
  outer loop
   vertex -0.0135145 0.00650826 -0.05
   vertex -0.0131733 0.00717381 -0.05
   vertex -0.0138221 0.00582652 -0.05
  endloop
 endfacet
 facet normal 0 -0 -1
  outer loop
   vertex -0.0138221 0.00582652 -0.05
   vertex -0.0131733 0.00717381 -0.05
   vertex -0.0140954 0.0051303 -0.05
  endloop
 endfacet
 facet normal 0 -0 -1
  outer loop
   vertex -0.0140954 0.0051303 -0.05
   vertex -0.0131733 0.00717381 -0.05
   vertex -0.0143336 0.00442133 -0.05
  endloop
 endfacet
 facet normal 0 0 -1
  outer loop
   vertex 0.00684316 -0.0133481 -0.05
   vertex 0.00813819 -0.0126004 -0.05
   vertex 0.0075 -0.0129904 -0.05
  endloop
 endfacet
 facet normal 0 0 -1
  outer loop
   vertex 0.0047773 -0.0142189 -0.05
   vertex 0.00813819 -0.0126004 -0.05
   vertex 0.00684316 -0.0133481 -0.05
  endloop
 endfacet
 facet normal 0 -0 -1
  outer loop
   vertex -0.0127994 0.00782153 -0.05
   vertex -0.0123936 0.0084498 -0.05
   vertex -0.0131733 0.00717381 -0.05
  endloop
 endfacet
 facet normal 0 -0 -1
  outer loop
   vertex -0.0131733 0.00717381 -0.05
   vertex -0.011957 0.00905707 -0.05
   vertex -0.0143336 0.00442133 -0.05
  endloop
 endfacet
 facet normal 0 -0 -1
  outer loop
   vertex -0.0123936 0.0084498 -0.05
   vertex -0.011957 0.00905707 -0.05
   vertex -0.0131733 0.00717381 -0.05
  endloop
 endfacet
 facet normal 0 0 -1
  outer loop
   vertex 0.00813819 -0.0126004 -0.05
   vertex 0.00935235 -0.0117275 -0.05
   vertex 0.00875616 -0.0121791 -0.05
  endloop
 endfacet
 facet normal 0 0 -1
  outer loop
   vertex 0.00813819 -0.0126004 -0.05
   vertex 0.00992529 -0.0112467 -0.05
   vertex 0.00935235 -0.0117275 -0.05
  endloop
 endfacet
 facet normal 0 -0 -1
  outer loop
   vertex -0.0109958 0.0102026 -0.05
   vertex -0.0104736 0.010738 -0.05
   vertex -0.0114907 0.00964181 -0.05
  endloop
 endfacet
 facet normal 0 -0 -1
  outer loop
   vertex -0.0114907 0.00964181 -0.05
   vertex -0.0104736 0.010738 -0.05
   vertex -0.011957 0.00905707 -0.05
  endloop
 endfacet
 facet normal 0 0 -1
  outer loop
   vertex 0.00992529 -0.0112467 -0.05
   vertex 0.0114907 -0.00964181 -0.05
   vertex 0.0104736 -0.010738 -0.05
  endloop
 endfacet
 facet normal 0 0 -1
  outer loop
   vertex 0.0104736 -0.010738 -0.05
   vertex 0.0114907 -0.00964181 -0.05
   vertex 0.0109958 -0.0102026 -0.05
  endloop
 endfacet
 facet normal 0 0 -1
  outer loop
   vertex 0.0047773 -0.0142189 -0.05
   vertex 0.0114907 -0.00964181 -0.05
   vertex 0.00813819 -0.0126004 -0.05
  endloop
 endfacet
 facet normal 0 0 -1
  outer loop
   vertex 0.00813819 -0.0126004 -0.05
   vertex 0.0114907 -0.00964181 -0.05
   vertex 0.00992529 -0.0112467 -0.05
  endloop
 endfacet
 facet normal 0 -0 -1
  outer loop
   vertex -0.00992529 0.0112467 -0.05
   vertex -0.00935235 0.0117275 -0.05
   vertex -0.0104736 0.010738 -0.05
  endloop
 endfacet
 facet normal 0 -0 -1
  outer loop
   vertex -0.0104736 0.010738 -0.05
   vertex -0.00813819 0.0126004 -0.05
   vertex -0.011957 0.00905707 -0.05
  endloop
 endfacet
 facet normal 0 -0 -1
  outer loop
   vertex -0.00875616 0.0121791 -0.05
   vertex -0.00813819 0.0126004 -0.05
   vertex -0.00935235 0.0117275 -0.05
  endloop
 endfacet
 facet normal 0 -0 -1
  outer loop
   vertex -0.00935235 0.0117275 -0.05
   vertex -0.00813819 0.0126004 -0.05
   vertex -0.0104736 0.010738 -0.05
  endloop
 endfacet
 facet normal 0 0 -1
  outer loop
   vertex 0.0114907 -0.00964181 -0.05
   vertex 0.0127994 -0.00782153 -0.05
   vertex 0.011957 -0.00905707 -0.05
  endloop
 endfacet
 facet normal 0 0 -1
  outer loop
   vertex 0.011957 -0.00905707 -0.05
   vertex 0.0127994 -0.00782153 -0.05
   vertex 0.0123936 -0.0084498 -0.05
  endloop
 endfacet
 facet normal 0 0 -1
  outer loop
   vertex 0.0047773 -0.0142189 -0.05
   vertex 0.0127994 -0.00782153 -0.05
   vertex 0.0114907 -0.00964181 -0.05
  endloop
 endfacet
 facet normal 0 0 -1
  outer loop
   vertex 0.0047773 -0.0142189 -0.05
   vertex 0.0131733 -0.00717381 -0.05
   vertex 0.0127994 -0.00782153 -0.05
  endloop
 endfacet
 facet normal 0 0 -1
  outer loop
   vertex 0.0047773 -0.0142189 -0.05
   vertex 0.0135145 -0.00650826 -0.05
   vertex 0.0131733 -0.00717381 -0.05
  endloop
 endfacet
 facet normal 0 -0 -1
  outer loop
   vertex -0.00684316 0.0133481 -0.05
   vertex -0.00616931 0.0136726 -0.05
   vertex -0.0075 0.0129904 -0.05
  endloop
 endfacet
 facet normal 0 -0 -1
  outer loop
   vertex -0.00548011 0.0139631 -0.05
   vertex -0.0047773 0.0142189 -0.05
   vertex -0.00616931 0.0136726 -0.05
  endloop
 endfacet
 facet normal 0 0 -1
  outer loop
   vertex -0.0143336 0.00442133 -0.05
   vertex 0.0143336 -0.00442133 -0.05
   vertex -0.0143336 -0.00442133 -0.05
  endloop
 endfacet
 facet normal 0 0 -1
  outer loop
   vertex -0.0143336 -0.00442133 -0.05
   vertex 0.0143336 -0.00442133 -0.05
   vertex 0.0047773 -0.0142189 -0.05
  endloop
 endfacet
 facet normal 0 0 -1
  outer loop
   vertex 0.0135145 -0.00650826 -0.05
   vertex 0.0143336 -0.00442133 -0.05
   vertex 0.0138221 -0.00582652 -0.05
  endloop
 endfacet
 facet normal 0 0 -1
  outer loop
   vertex 0.0138221 -0.00582652 -0.05
   vertex 0.0143336 -0.00442133 -0.05
   vertex 0.0140954 -0.0051303 -0.05
  endloop
 endfacet
 facet normal 0 0 -1
  outer loop
   vertex 0.0047773 -0.0142189 -0.05
   vertex 0.0143336 -0.00442133 -0.05
   vertex 0.0135145 -0.00650826 -0.05
  endloop
 endfacet
 facet normal 0 -0 -1
  outer loop
   vertex -0.0075 0.0129904 -0.05
   vertex -0.00406261 0.0144394 -0.05
   vertex -0.00813819 0.0126004 -0.05
  endloop
 endfacet
 facet normal 0 -0 -1
  outer loop
   vertex -0.00616931 0.0136726 -0.05
   vertex -0.00406261 0.0144394 -0.05
   vertex -0.0075 0.0129904 -0.05
  endloop
 endfacet
 facet normal 0 -0 -1
  outer loop
   vertex -0.0047773 0.0142189 -0.05
   vertex -0.00406261 0.0144394 -0.05
   vertex -0.00616931 0.0136726 -0.05
  endloop
 endfacet
 facet normal 0 0 -1
  outer loop
   vertex 0.0143336 -0.00442133 -0.05
   vertex 0.0147026 -0.00297219 -0.05
   vertex 0.0145362 -0.00370136 -0.05
  endloop
 endfacet
 facet normal 0 0 -1
  outer loop
   vertex -0.0143336 0.00442133 -0.05
   vertex 0.0147026 -0.00297219 -0.05
   vertex 0.0143336 -0.00442133 -0.05
  endloop
 endfacet
 facet normal 0 -0 -1
  outer loop
   vertex -0.00186516 0.0148836 -0.05
   vertex -0.00112095 0.0149581 -0.05
   vertex -0.00260472 0.0147721 -0.05
  endloop
 endfacet
 facet normal 0 -0 -1
  outer loop
   vertex -0.00260472 0.0147721 -0.05
   vertex -0.00112095 0.0149581 -0.05
   vertex -0.00333781 0.0146239 -0.05
  endloop
 endfacet
 facet normal 0 -0 -1
  outer loop
   vertex -0.00333781 0.0146239 -0.05
   vertex -0.00112095 0.0149581 -0.05
   vertex -0.00406261 0.0144394 -0.05
  endloop
 endfacet
 facet normal 0 -0 -1
  outer loop
   vertex -0.011957 0.00905707 -0.05
   vertex -0.00112095 0.0149581 -0.05
   vertex -0.0143336 0.00442133 -0.05
  endloop
 endfacet
 facet normal 0 -0 -1
  outer loop
   vertex -0.00813819 0.0126004 -0.05
   vertex -0.00112095 0.0149581 -0.05
   vertex -0.011957 0.00905707 -0.05
  endloop
 endfacet
 facet normal 0 -0 -1
  outer loop
   vertex -0.00406261 0.0144394 -0.05
   vertex -0.00112095 0.0149581 -0.05
   vertex -0.00813819 0.0126004 -0.05
  endloop
 endfacet
 facet normal 0 0 -1
  outer loop
   vertex 0.0148325 -0.00223563 -0.05
   vertex 0.0149814 -0.000747688 -0.05
   vertex 0.0149255 -0.00149352 -0.05
  endloop
 endfacet
 facet normal 0 0 -1
  outer loop
   vertex 0.0148325 -0.00223563 -0.05
   vertex 0.015 0 -0.05
   vertex 0.0149814 -0.000747688 -0.05
  endloop
 endfacet
 facet normal 0 0 -1
  outer loop
   vertex 0.0147026 -0.00297219 -0.05
   vertex 0.015 0 -0.05
   vertex 0.0148325 -0.00223563 -0.05
  endloop
 endfacet
 facet normal 0 -0 -1
  outer loop
   vertex -0.00112095 0.0149581 -0.05
   vertex 0.00112095 0.0149581 -0.05
   vertex -0.0143336 0.00442133 -0.05
  endloop
 endfacet
 facet normal -0 -0 -1
  outer loop
   vertex 0.00037396 0.0149953 -0.05
   vertex 0.00112095 0.0149581 -0.05
   vertex -0.00037396 0.0149953 -0.05
  endloop
 endfacet
 facet normal 0 -0 -1
  outer loop
   vertex -0.00037396 0.0149953 -0.05
   vertex 0.00112095 0.0149581 -0.05
   vertex -0.00112095 0.0149581 -0.05
  endloop
 endfacet
 facet normal 0 0 -1
  outer loop
   vertex 0.015 0 -0.05
   vertex 0.0149255 0.00149352 -0.05
   vertex 0.0149814 0.000747688 -0.05
  endloop
 endfacet
 facet normal -0 -0 -1
  outer loop
   vertex 0.00333781 0.0146239 -0.05
   vertex 0.00406261 0.0144394 -0.05
   vertex 0.00260472 0.0147721 -0.05
  endloop
 endfacet
 facet normal -0 -0 -1
  outer loop
   vertex 0.00260472 0.0147721 -0.05
   vertex 0.00406261 0.0144394 -0.05
   vertex 0.00186516 0.0148836 -0.05
  endloop
 endfacet
 facet normal 0 0 -1
  outer loop
   vertex 0.0149255 0.00149352 -0.05
   vertex 0.0143336 0.00442133 -0.05
   vertex 0.0148325 0.00223563 -0.05
  endloop
 endfacet
 facet normal 0 0 -1
  outer loop
   vertex 0.0148325 0.00223563 -0.05
   vertex 0.0143336 0.00442133 -0.05
   vertex 0.0147026 0.00297219 -0.05
  endloop
 endfacet
 facet normal 0 0 -1
  outer loop
   vertex 0.0147026 0.00297219 -0.05
   vertex 0.0143336 0.00442133 -0.05
   vertex 0.0145362 0.00370136 -0.05
  endloop
 endfacet
 facet normal 0 0 -1
  outer loop
   vertex 0.015 0 -0.05
   vertex 0.0143336 0.00442133 -0.05
   vertex 0.0149255 0.00149352 -0.05
  endloop
 endfacet
 facet normal -0 -0 -1
  outer loop
   vertex 0.00406261 0.0144394 -0.05
   vertex 0.0047773 0.0142189 -0.05
   vertex 0.00186516 0.0148836 -0.05
  endloop
 endfacet
 facet normal 0 0 -1
  outer loop
   vertex -0.0143336 0.00442133 -0.05
   vertex 0.0140954 0.0051303 -0.05
   vertex 0.0147026 -0.00297219 -0.05
  endloop
 endfacet
 facet normal 0 0 -1
  outer loop
   vertex 0.0147026 -0.00297219 -0.05
   vertex 0.0140954 0.0051303 -0.05
   vertex 0.015 0 -0.05
  endloop
 endfacet
 facet normal 0 0 -1
  outer loop
   vertex 0.015 0 -0.05
   vertex 0.0140954 0.0051303 -0.05
   vertex 0.0143336 0.00442133 -0.05
  endloop
 endfacet
 facet normal -0 -0 -1
  outer loop
   vertex 0.00548011 0.0139631 -0.05
   vertex 0.00616931 0.0136726 -0.05
   vertex 0.0047773 0.0142189 -0.05
  endloop
 endfacet
 facet normal -0 -0 -1
  outer loop
   vertex 0.00186516 0.0148836 -0.05
   vertex 0.00616931 0.0136726 -0.05
   vertex 0.00112095 0.0149581 -0.05
  endloop
 endfacet
 facet normal -0 -0 -1
  outer loop
   vertex 0.0047773 0.0142189 -0.05
   vertex 0.00616931 0.0136726 -0.05
   vertex 0.00186516 0.0148836 -0.05
  endloop
 endfacet
 facet normal 0 0 -1
  outer loop
   vertex 0.0140954 0.0051303 -0.05
   vertex 0.0131733 0.00717381 -0.05
   vertex 0.0138221 0.00582652 -0.05
  endloop
 endfacet
 facet normal 0 0 -1
  outer loop
   vertex 0.0138221 0.00582652 -0.05
   vertex 0.0131733 0.00717381 -0.05
   vertex 0.0135145 0.00650826 -0.05
  endloop
 endfacet
 facet normal -0 -0 -1
  outer loop
   vertex 0.00684316 0.0133481 -0.05
   vertex 0.0075 0.0129904 -0.05
   vertex 0.00616931 0.0136726 -0.05
  endloop
 endfacet
 facet normal 0 -0 -1
  outer loop
   vertex 0.00112095 0.0149581 -0.05
   vertex 0.00813819 0.0126004 -0.05
   vertex -0.0143336 0.00442133 -0.05
  endloop
 endfacet
 facet normal -0 -0 -1
  outer loop
   vertex 0.00616931 0.0136726 -0.05
   vertex 0.00813819 0.0126004 -0.05
   vertex 0.00112095 0.0149581 -0.05
  endloop
 endfacet
 facet normal -0 -0 -1
  outer loop
   vertex 0.0075 0.0129904 -0.05
   vertex 0.00813819 0.0126004 -0.05
   vertex 0.00616931 0.0136726 -0.05
  endloop
 endfacet
 facet normal 0 0 -1
  outer loop
   vertex 0.0131733 0.00717381 -0.05
   vertex 0.011957 0.00905707 -0.05
   vertex 0.0127994 0.00782153 -0.05
  endloop
 endfacet
 facet normal 0 0 -1
  outer loop
   vertex 0.0127994 0.00782153 -0.05
   vertex 0.011957 0.00905707 -0.05
   vertex 0.0123936 0.0084498 -0.05
  endloop
 endfacet
 facet normal 0 0 -1
  outer loop
   vertex 0.0140954 0.0051303 -0.05
   vertex 0.011957 0.00905707 -0.05
   vertex 0.0131733 0.00717381 -0.05
  endloop
 endfacet
 facet normal 0 -0 -1
  outer loop
   vertex 0.00813819 0.0126004 -0.05
   vertex 0.00935235 0.0117275 -0.05
   vertex -0.0143336 0.00442133 -0.05
  endloop
 endfacet
 facet normal -0 -0 -1
  outer loop
   vertex 0.00875616 0.0121791 -0.05
   vertex 0.00935235 0.0117275 -0.05
   vertex 0.00813819 0.0126004 -0.05
  endloop
 endfacet
 facet normal 0 0 -1
  outer loop
   vertex -0.0143336 0.00442133 -0.05
   vertex 0.00935235 0.0117275 -0.05
   vertex 0.0140954 0.0051303 -0.05
  endloop
 endfacet
 facet normal 0 0 -1
  outer loop
   vertex 0.0140954 0.0051303 -0.05
   vertex 0.0114907 0.00964181 -0.05
   vertex 0.011957 0.00905707 -0.05
  endloop
 endfacet
 facet normal 0 0 -1
  outer loop
   vertex 0.0140954 0.0051303 -0.05
   vertex 0.0109958 0.0102026 -0.05
   vertex 0.0114907 0.00964181 -0.05
  endloop
 endfacet
 facet normal -0 -0 -1
  outer loop
   vertex 0.00992529 0.0112467 -0.05
   vertex 0.0104736 0.010738 -0.05
   vertex 0.00935235 0.0117275 -0.05
  endloop
 endfacet
 facet normal 0 0 -1
  outer loop
   vertex 0.00935235 0.0117275 -0.05
   vertex 0.0104736 0.010738 -0.05
   vertex 0.0140954 0.0051303 -0.05
  endloop
 endfacet
 facet normal 0 0 -1
  outer loop
   vertex 0.0140954 0.0051303 -0.05
   vertex 0.0104736 0.010738 -0.05
   vertex 0.0109958 0.0102026 -0.05
  endloop
 endfacet
endsolid outlet
solid wall
 facet normal 0.997564 0.0697565 0
  outer loop
   vertex 0.015 0 0
   vertex 0.015 0 -0.05
   vertex 0.014854 0.0020876 -0.05
  endloop
 endfacet
 facet normal 0.997564 0.0697565 0
  outer loop
   vertex 0.014854 0.0020876 0
   vertex 0.015 0 0
   vertex 0.014854 0.0020876 -0.05
  endloop
 endfacet
 facet normal 0.978148 0.207912 0
  outer loop
   vertex 0.0144189 0.00413456 0
   vertex 0.014854 0.0020876 -0.05
   vertex 0.0144189 0.00413456 -0.05
  endloop
 endfacet
 facet normal 0.978148 0.207912 1.48197e-19
  outer loop
   vertex 0.0144189 0.00413456 0
   vertex 0.014854 0.0020876 0
   vertex 0.014854 0.0020876 -0.05
  endloop
 endfacet
 facet normal 0.939693 0.34202 0
  outer loop
   vertex 0.0137032 0.00610105 0
   vertex 0.0144189 0.00413456 -0.05
   vertex 0.0137032 0.00610105 -0.05
  endloop
 endfacet
 facet normal 0.939693 0.34202 -6.15676e-20
  outer loop
   vertex 0.0137032 0.00610105 0
   vertex 0.0144189 0.00413456 0
   vertex 0.0144189 0.00413456 -0.05
  endloop
 endfacet
 facet normal 0.882948 0.469472 0
  outer loop
   vertex 0.0137032 0.00610105 0
   vertex 0.0137032 0.00610105 -0.05
   vertex 0.0127207 0.00794879 -0.05
  endloop
 endfacet
 facet normal 0.882948 0.469472 0
  outer loop
   vertex 0.0127207 0.00794879 0
   vertex 0.0137032 0.00610105 0
   vertex 0.0127207 0.00794879 -0.05
  endloop
 endfacet
 facet normal 0.809017 0.587785 0
  outer loop
   vertex 0.0114907 0.00964181 0
   vertex 0.0127207 0.00794879 -0.05
   vertex 0.0114907 0.00964181 -0.05
  endloop
 endfacet
 facet normal 0.809017 0.587785 -1.20163e-18
  outer loop
   vertex 0.0114907 0.00964181 0
   vertex 0.0127207 0.00794879 0
   vertex 0.0127207 0.00794879 -0.05
  endloop
 endfacet
 facet normal 0.71934 0.694659 0
  outer loop
   vertex 0.010037 0.0111472 0
   vertex 0.0114907 0.00964181 -0.05
   vertex 0.010037 0.0111472 -0.05
  endloop
 endfacet
 facet normal 0.71934 0.694659 7.18368e-19
  outer loop
   vertex 0.010037 0.0111472 0
   vertex 0.0114907 0.00964181 0
   vertex 0.0114907 0.00964181 -0.05
  endloop
 endfacet
 facet normal 0.615662 0.78801 0
  outer loop
   vertex 0.00838789 0.0124356 0
   vertex 0.010037 0.0111472 -0.05
   vertex 0.00838789 0.0124356 -0.05
  endloop
 endfacet
 facet normal 0.615662 0.78801 -1.62218e-18
  outer loop
   vertex 0.00838789 0.0124356 0
   vertex 0.010037 0.0111472 0
   vertex 0.010037 0.0111472 -0.05
  endloop
 endfacet
 facet normal 0.5 0.866026 0
  outer loop
   vertex 0.00657557 0.0134819 0
   vertex 0.00838789 0.0124356 -0.05
   vertex 0.00657557 0.0134819 -0.05
  endloop
 endfacet
 facet normal 0.5 0.866026 4.38483e-19
  outer loop
   vertex 0.00657557 0.0134819 0
   vertex 0.00838789 0.0124356 0
   vertex 0.00838789 0.0124356 -0.05
  endloop
 endfacet
 facet normal 0.374607 0.927184 0
  outer loop
   vertex 0.00463525 0.0142658 0
   vertex 0.00657557 0.0134819 -0.05
   vertex 0.00463525 0.0142658 -0.05
  endloop
 endfacet
 facet normal 0.241922 0.970296 0
  outer loop
   vertex 0.00463525 0.0142658 0
   vertex 0.00463525 0.0142658 -0.05
   vertex 0.00260472 0.0147721 -0.05
  endloop
 endfacet
 facet normal 0.374607 0.927184 9.61293e-20
  outer loop
   vertex 0.00463525 0.0142658 0
   vertex 0.00657557 0.0134819 0
   vertex 0.00657557 0.0134819 -0.05
  endloop
 endfacet
 facet normal 0.241922 0.970296 0
  outer loop
   vertex 0.00260472 0.0147721 0
   vertex 0.00463525 0.0142658 0
   vertex 0.00260472 0.0147721 -0.05
  endloop
 endfacet
 facet normal 0.104528 0.994522 0
  outer loop
   vertex 0.000523492 0.0149909 0
   vertex 0.00260472 0.0147721 -0.05
   vertex 0.000523492 0.0149909 -0.05
  endloop
 endfacet
 facet normal -0.0348997 0.999391 0
  outer loop
   vertex 0.000523492 0.0149909 0
   vertex 0.000523492 0.0149909 -0.05
   vertex -0.00156793 0.0149178 -0.05
  endloop
 endfacet
 facet normal 0.104528 0.994522 2.28808e-19
  outer loop
   vertex 0.000523492 0.0149909 0
   vertex 0.00260472 0.0147721 0
   vertex 0.00260472 0.0147721 -0.05
  endloop
 endfacet
 facet normal -0.0348997 0.999391 0
  outer loop
   vertex -0.00156793 0.0149178 0
   vertex 0.000523492 0.0149909 0
   vertex -0.00156793 0.0149178 -0.05
  endloop
 endfacet
 facet normal -0.173648 0.984808 0
  outer loop
   vertex -0.00362883 0.0145544 0
   vertex -0.00156793 0.0149178 -0.05
   vertex -0.00362883 0.0145544 -0.05
  endloop
 endfacet
 facet normal -0.309017 0.951057 0
  outer loop
   vertex -0.00362883 0.0145544 0
   vertex -0.00362883 0.0145544 -0.05
   vertex -0.0056191 0.0139078 -0.05
  endloop
 endfacet
 facet normal -0.173648 0.984808 4.88009e-19
  outer loop
   vertex -0.00362883 0.0145544 0
   vertex -0.00156793 0.0149178 0
   vertex -0.00156793 0.0149178 -0.05
  endloop
 endfacet
 facet normal -0.309017 0.951057 0
  outer loop
   vertex -0.0056191 0.0139078 0
   vertex -0.00362883 0.0145544 0
   vertex -0.0056191 0.0139078 -0.05
  endloop
 endfacet
 facet normal -0.438371 0.898794 0
  outer loop
   vertex -0.0075 0.0129904 0
   vertex -0.0056191 0.0139078 -0.05
   vertex -0.0075 0.0129904 -0.05
  endloop
 endfacet
 facet normal -0.438371 0.898794 3.3092e-19
  outer loop
   vertex -0.0075 0.0129904 0
   vertex -0.0056191 0.0139078 0
   vertex -0.0056191 0.0139078 -0.05
  endloop
 endfacet
 facet normal -0.559193 0.829037 0
  outer loop
   vertex -0.00923492 0.0118202 0
   vertex -0.0075 0.0129904 -0.05
   vertex -0.00923492 0.0118202 -0.05
  endloop
 endfacet
 facet normal -0.559193 0.829037 -1.33119e-18
  outer loop
   vertex -0.00923492 0.0118202 0
   vertex -0.0075 0.0129904 0
   vertex -0.0075 0.0129904 -0.05
  endloop
 endfacet
 facet normal -0.669131 0.743145 0
  outer loop
   vertex -0.0107901 0.0104199 0
   vertex -0.00923492 0.0118202 -0.05
   vertex -0.0107901 0.0104199 -0.05
  endloop
 endfacet
 facet normal -0.669131 0.743145 -8.86581e-20
  outer loop
   vertex -0.0107901 0.0104199 0
   vertex -0.00923492 0.0118202 0
   vertex -0.00923492 0.0118202 -0.05
  endloop
 endfacet
 facet normal -0.766044 0.642788 0
  outer loop
   vertex -0.0121353 0.00881678 0
   vertex -0.0107901 0.0104199 -0.05
   vertex -0.0121353 0.00881678 -0.05
  endloop
 endfacet
 facet normal -0.766044 0.642788 6.64055e-19
  outer loop
   vertex -0.0121353 0.00881678 0
   vertex -0.0107901 0.0104199 0
   vertex -0.0107901 0.0104199 -0.05
  endloop
 endfacet
 facet normal -0.848048 0.529919 0
  outer loop
   vertex -0.0132442 0.00704207 0
   vertex -0.0121353 0.00881678 -0.05
   vertex -0.0132442 0.00704207 -0.05
  endloop
 endfacet
 facet normal -0.848048 0.529919 1.19486e-18
  outer loop
   vertex -0.0132442 0.00704207 0
   vertex -0.0121353 0.00881678 0
   vertex -0.0121353 0.00881678 -0.05
  endloop
 endfacet
 facet normal -0.913545 0.406737 0
  outer loop
   vertex -0.0140954 0.0051303 0
   vertex -0.0132442 0.00704207 -0.05
   vertex -0.0140954 0.0051303 -0.05
  endloop
 endfacet
 facet normal -0.961262 0.275637 0
  outer loop
   vertex -0.0140954 0.0051303 0
   vertex -0.0140954 0.0051303 -0.05
   vertex -0.0146722 0.00311867 -0.05
  endloop
 endfacet
 facet normal -0.913545 0.406737 8.3373e-19
  outer loop
   vertex -0.0140954 0.0051303 0
   vertex -0.0132442 0.00704207 0
   vertex -0.0132442 0.00704207 -0.05
  endloop
 endfacet
 facet normal -0.961262 0.275637 0
  outer loop
   vertex -0.0146722 0.00311867 0
   vertex -0.0140954 0.0051303 0
   vertex -0.0146722 0.00311867 -0.05
  endloop
 endfacet
 facet normal -0.990268 0.139173 0
  outer loop
   vertex -0.0149635 0.00104635 0
   vertex -0.0146722 0.00311867 -0.05
   vertex -0.0149635 0.00104635 -0.05
  endloop
 endfacet
 facet normal -1 0 -0
  outer loop
   vertex -0.0149635 0.00104635 0
   vertex -0.0149635 0.00104635 -0.05
   vertex -0.0149635 -0.00104635 -0.05
  endloop
 endfacet
 facet normal -0.990268 0.139173 4.66948e-19
  outer loop
   vertex -0.0149635 0.00104635 0
   vertex -0.0146722 0.00311867 0
   vertex -0.0146722 0.00311867 -0.05
  endloop
 endfacet
 facet normal -1 0 0
  outer loop
   vertex -0.0149635 -0.00104635 0
   vertex -0.0149635 0.00104635 0
   vertex -0.0149635 -0.00104635 -0.05
  endloop
 endfacet
 facet normal -0.990268 -0.139173 -0
  outer loop
   vertex -0.0146722 -0.00311867 0
   vertex -0.0149635 -0.00104635 -0.05
   vertex -0.0146722 -0.00311867 -0.05
  endloop
 endfacet
 facet normal -0.990268 -0.139173 -4.66948e-19
  outer loop
   vertex -0.0146722 -0.00311867 0
   vertex -0.0149635 -0.00104635 0
   vertex -0.0149635 -0.00104635 -0.05
  endloop
 endfacet
 facet normal -0.961262 -0.275637 -0
  outer loop
   vertex -0.0140954 -0.0051303 0
   vertex -0.0146722 -0.00311867 -0.05
   vertex -0.0140954 -0.0051303 -0.05
  endloop
 endfacet
 facet normal -0.961262 -0.275637 -9.1147e-19
  outer loop
   vertex -0.0140954 -0.0051303 0
   vertex -0.0146722 -0.00311867 0
   vertex -0.0146722 -0.00311867 -0.05
  endloop
 endfacet
 facet normal -0.913545 -0.406737 -0
  outer loop
   vertex -0.0132442 -0.00704207 0
   vertex -0.0140954 -0.0051303 -0.05
   vertex -0.0132442 -0.00704207 -0.05
  endloop
 endfacet
 facet normal -0.913545 -0.406737 -8.3373e-19
  outer loop
   vertex -0.0132442 -0.00704207 0
   vertex -0.0140954 -0.0051303 0
   vertex -0.0140954 -0.0051303 -0.05
  endloop
 endfacet
 facet normal -0.848048 -0.529919 -1.19486e-18
  outer loop
   vertex -0.0121353 -0.00881678 0
   vertex -0.0132442 -0.00704207 0
   vertex -0.0132442 -0.00704207 -0.05
  endloop
 endfacet
 facet normal -0.848048 -0.529919 -0
  outer loop
   vertex -0.0121353 -0.00881678 0
   vertex -0.0132442 -0.00704207 -0.05
   vertex -0.0121353 -0.00881678 -0.05
  endloop
 endfacet
 facet normal -0.766044 -0.642788 -6.64055e-19
  outer loop
   vertex -0.0107901 -0.0104199 0
   vertex -0.0121353 -0.00881678 0
   vertex -0.0121353 -0.00881678 -0.05
  endloop
 endfacet
 facet normal -0.766044 -0.642788 -0
  outer loop
   vertex -0.0107901 -0.0104199 0
   vertex -0.0121353 -0.00881678 -0.05
   vertex -0.0107901 -0.0104199 -0.05
  endloop
 endfacet
 facet normal -0.669131 -0.743145 8.86581e-20
  outer loop
   vertex -0.00923492 -0.0118202 0
   vertex -0.0107901 -0.0104199 0
   vertex -0.0107901 -0.0104199 -0.05
  endloop
 endfacet
 facet normal -0.669131 -0.743145 -0
  outer loop
   vertex -0.00923492 -0.0118202 0
   vertex -0.0107901 -0.0104199 -0.05
   vertex -0.00923492 -0.0118202 -0.05
  endloop
 endfacet
 facet normal -0.559193 -0.829037 1.33119e-18
  outer loop
   vertex -0.0075 -0.0129904 0
   vertex -0.00923492 -0.0118202 0
   vertex -0.00923492 -0.0118202 -0.05
  endloop
 endfacet
 facet normal -0.559193 -0.829037 -0
  outer loop
   vertex -0.0075 -0.0129904 0
   vertex -0.00923492 -0.0118202 -0.05
   vertex -0.0075 -0.0129904 -0.05
  endloop
 endfacet
 facet normal -0.438371 -0.898794 -3.3092e-19
  outer loop
   vertex -0.0056191 -0.0139078 0
   vertex -0.0075 -0.0129904 0
   vertex -0.0075 -0.0129904 -0.05
  endloop
 endfacet
 facet normal -0.438371 -0.898794 -0
  outer loop
   vertex -0.0056191 -0.0139078 0
   vertex -0.0075 -0.0129904 -0.05
   vertex -0.0056191 -0.0139078 -0.05
  endloop
 endfacet
 facet normal -0.309017 -0.951057 4.3869e-19
  outer loop
   vertex -0.00362883 -0.0145544 0
   vertex -0.0056191 -0.0139078 0
   vertex -0.0056191 -0.0139078 -0.05
  endloop
 endfacet
 facet normal -0.309017 -0.951057 -0
  outer loop
   vertex -0.00362883 -0.0145544 0
   vertex -0.0056191 -0.0139078 -0.05
   vertex -0.00362883 -0.0145544 -0.05
  endloop
 endfacet
 facet normal -0.173648 -0.984808 -0
  outer loop
   vertex -0.00362883 -0.0145544 0
   vertex -0.00362883 -0.0145544 -0.05
   vertex -0.00156793 -0.0149178 -0.05
  endloop
 endfacet
 facet normal -0.173648 -0.984808 -0
  outer loop
   vertex -0.00156793 -0.0149178 0
   vertex -0.00362883 -0.0145544 0
   vertex -0.00156793 -0.0149178 -0.05
  endloop
 endfacet
 facet normal -0.0348997 -0.999391 1.08516e-20
  outer loop
   vertex 0.000523492 -0.0149909 0
   vertex -0.00156793 -0.0149178 0
   vertex -0.00156793 -0.0149178 -0.05
  endloop
 endfacet
 facet normal -0.0348997 -0.999391 -0
  outer loop
   vertex 0.000523492 -0.0149909 0
   vertex -0.00156793 -0.0149178 -0.05
   vertex 0.000523492 -0.0149909 -0.05
  endloop
 endfacet
 facet normal 0.104528 -0.994522 0
  outer loop
   vertex 0.000523492 -0.0149909 0
   vertex 0.000523492 -0.0149909 -0.05
   vertex 0.00260472 -0.0147721 -0.05
  endloop
 endfacet
 facet normal 0.104528 -0.994522 0
  outer loop
   vertex 0.00260472 -0.0147721 0
   vertex 0.000523492 -0.0149909 0
   vertex 0.00260472 -0.0147721 -0.05
  endloop
 endfacet
 facet normal 0.241922 -0.970296 0
  outer loop
   vertex 0.00463525 -0.0142658 0
   vertex 0.00260472 -0.0147721 -0.05
   vertex 0.00463525 -0.0142658 -0.05
  endloop
 endfacet
 facet normal 0.241922 -0.970296 7.52511e-19
  outer loop
   vertex 0.00463525 -0.0142658 0
   vertex 0.00260472 -0.0147721 0
   vertex 0.00260472 -0.0147721 -0.05
  endloop
 endfacet
 facet normal 0.374607 -0.927184 0
  outer loop
   vertex 0.00463525 -0.0142658 0
   vertex 0.00463525 -0.0142658 -0.05
   vertex 0.00657557 -0.0134819 -0.05
  endloop
 endfacet
 facet normal 0.374607 -0.927184 0
  outer loop
   vertex 0.00657557 -0.0134819 0
   vertex 0.00463525 -0.0142658 0
   vertex 0.00657557 -0.0134819 -0.05
  endloop
 endfacet
 facet normal 0.5 -0.866026 0
  outer loop
   vertex 0.00838789 -0.0124356 0
   vertex 0.00657557 -0.0134819 -0.05
   vertex 0.00838789 -0.0124356 -0.05
  endloop
 endfacet
 facet normal 0.615662 -0.78801 0
  outer loop
   vertex 0.00838789 -0.0124356 0
   vertex 0.00838789 -0.0124356 -0.05
   vertex 0.010037 -0.0111472 -0.05
  endloop
 endfacet
 facet normal 0.5 -0.866026 -4.38483e-19
  outer loop
   vertex 0.00838789 -0.0124356 0
   vertex 0.00657557 -0.0134819 0
   vertex 0.00657557 -0.0134819 -0.05
  endloop
 endfacet
 facet normal 0.615662 -0.78801 0
  outer loop
   vertex 0.010037 -0.0111472 0
   vertex 0.00838789 -0.0124356 0
   vertex 0.010037 -0.0111472 -0.05
  endloop
 endfacet
 facet normal 0.71934 -0.694659 0
  outer loop
   vertex 0.0114907 -0.00964181 0
   vertex 0.010037 -0.0111472 -0.05
   vertex 0.0114907 -0.00964181 -0.05
  endloop
 endfacet
 facet normal 0.71934 -0.694659 -7.18368e-19
  outer loop
   vertex 0.0114907 -0.00964181 0
   vertex 0.010037 -0.0111472 0
   vertex 0.010037 -0.0111472 -0.05
  endloop
 endfacet
 facet normal 0.809017 -0.587785 0
  outer loop
   vertex 0.0127207 -0.00794879 0
   vertex 0.0114907 -0.00964181 -0.05
   vertex 0.0127207 -0.00794879 -0.05
  endloop
 endfacet
 facet normal 0.809017 -0.587785 1.20163e-18
  outer loop
   vertex 0.0127207 -0.00794879 0
   vertex 0.0114907 -0.00964181 0
   vertex 0.0114907 -0.00964181 -0.05
  endloop
 endfacet
 facet normal 0.882948 -0.469472 0
  outer loop
   vertex 0.0137032 -0.00610105 0
   vertex 0.0127207 -0.00794879 -0.05
   vertex 0.0137032 -0.00610105 -0.05
  endloop
 endfacet
 facet normal 0.882948 -0.469472 -3.29796e-19
  outer loop
   vertex 0.0137032 -0.00610105 0
   vertex 0.0127207 -0.00794879 0
   vertex 0.0127207 -0.00794879 -0.05
  endloop
 endfacet
 facet normal 0.939693 -0.34202 0
  outer loop
   vertex 0.0144189 -0.00413456 0
   vertex 0.0137032 -0.00610105 -0.05
   vertex 0.0144189 -0.00413456 -0.05
  endloop
 endfacet
 facet normal 0.939693 -0.34202 6.15676e-20
  outer loop
   vertex 0.0144189 -0.00413456 0
   vertex 0.0137032 -0.00610105 0
   vertex 0.0137032 -0.00610105 -0.05
  endloop
 endfacet
 facet normal 0.978148 -0.207912 0
  outer loop
   vertex 0.014854 -0.0020876 0
   vertex 0.0144189 -0.00413456 -0.05
   vertex 0.014854 -0.0020876 -0.05
  endloop
 endfacet
 facet normal 0.997564 -0.0697565 0
  outer loop
   vertex 0.014854 -0.0020876 0
   vertex 0.014854 -0.0020876 -0.05
   vertex 0.015 0 -0.05
  endloop
 endfacet
 facet normal 0.978148 -0.207912 -1.48197e-19
  outer loop
   vertex 0.014854 -0.0020876 0
   vertex 0.0144189 -0.00413456 0
   vertex 0.0144189 -0.00413456 -0.05
  endloop
 endfacet
 facet normal 0.997564 -0.0697565 0
  outer loop
   vertex 0.015 0 0
   vertex 0.014854 -0.0020876 0
   vertex 0.015 0 -0.05
  endloop
 endfacet
endsolid wall
