solid face
 facet normal 0 0 1
  outer loop
   vertex 0.03 0.03 0
   vertex 0 0 0
   vertex 0.03 0 0
  endloop
 endfacet
 facet normal 0 0 1
  outer loop
   vertex 0.03 0.03 0
   vertex 0 0.03 0
   vertex 0 0 0
  endloop
 endfacet
endsolid face
solid outlet
 facet normal 0 0 -1
  outer loop
   vertex 0 0 -0.05
   vertex 0.03 0.03 -0.05
   vertex 0.03 0 -0.05
  endloop
 endfacet
 facet normal 0 0 -1
  outer loop
   vertex 0 0.03 -0.05
   vertex 0.03 0.03 -0.05
   vertex 0 0 -0.05
  endloop
 endfacet
endsolid outlet
solid wall
 facet normal -1 0 -0
  outer loop
   vertex 0 0.03 0
   vertex 0 0.03 -0.05
   vertex 0 0 -0.05
  endloop
 endfacet
 facet normal -1 0 0
  outer loop
   vertex 0 0 0
   vertex 0 0.03 0
   vertex 0 0 -0.05
  endloop
 endfacet
 facet normal 0 -1 0
  outer loop
   vertex 0 0 0
   vertex 0 0 -0.05
   vertex 0.03 0 -0.05
  endloop
 endfacet
 facet normal -0 -1 -0
  outer loop
   vertex 0.03 0 0
   vertex 0 0 0
   vertex 0.03 0 -0.05
  endloop
 endfacet
 facet normal 1 0 0
  outer loop
   vertex 0.03 0 0
   vertex 0.03 0 -0.05
   vertex 0.03 0.03 -0.05
  endloop
 endfacet
 facet normal 1 0 0
  outer loop
   vertex 0.03 0.03 0
   vertex 0.03 0 0
   vertex 0.03 0.03 -0.05
  endloop
 endfacet
 facet normal 0 1 0
  outer loop
   vertex 0.03 0.03 0
   vertex 0.03 0.03 -0.05
   vertex 0 0.03 -0.05
  endloop
 endfacet
 facet normal -0 1 0
  outer loop
   vertex 0 0.03 0
   vertex 0.03 0.03 0
   vertex 0 0.03 -0.05
  endloop
 endfacet
endsolid wall
